<?xml version="1.0" encoding="UTF-8"?>
<svg xmlns="http://www.w3.org/2000/svg" width="160" height="29" viewBox="0 0 160 29" fill="none">
  <g clip-path="url(#clip0_1_4344)">
    <path d="M44.2562 7.80284C43.357 6.71005 42.2763 5.85517 41.0504 5.26239C39.8205 4.66962 38.4979 4.36719 37.1188 4.36719C34.538 4.36719 32.3242 5.27852 30.5458 7.07297C28.7716 8.86741 27.8683 11.0732 27.8683 13.6298C27.8683 16.1863 28.7877 18.4203 30.5983 20.2067C32.4048 21.989 34.6186 22.8923 37.1792 22.8923C39.0785 22.8923 40.8568 22.3116 42.4577 21.1664C43.9901 20.0696 45.0909 18.6582 45.7321 16.9565H42.0424C41.6069 17.6461 41.0101 18.2106 40.2278 18.6663C39.2076 19.2631 38.1107 19.5655 36.9655 19.5655C35.5179 19.5655 34.2315 19.0534 33.0339 18.0009C32.0298 17.1178 31.4652 16.1379 31.3241 15.0129H46.337V14.4282C46.337 13.0854 46.1878 11.8756 45.8894 10.8312C45.5829 9.76665 45.0345 8.74644 44.2562 7.79478V7.80284ZM31.441 11.8151C31.7717 10.7143 32.3927 9.80698 33.3202 9.04887C34.4412 8.13351 35.6913 7.68994 37.147 7.68994C38.6027 7.68994 39.7802 8.1456 40.8891 9.08517C41.8045 9.86343 42.4214 10.7586 42.7521 11.8151H31.441Z" fill="#121221"></path>
    <path d="M64.3217 4.72217L59.9666 4.73427L53.2082 13.5412V4.73427H49.7927V22.5295H53.2082L53.1921 18.9689L55.2607 16.3074L60.386 22.5456L64.8015 22.5215L57.4423 13.6339L64.3217 4.72217Z" fill="#121221"></path>
    <path d="M81.3468 6.65359C80.8306 6.10921 80.2257 5.66161 79.5322 5.31078C78.2902 4.68172 76.907 4.36719 75.4231 4.36719C74.1085 4.36719 72.81 4.65752 71.564 5.2261C70.326 5.79065 69.072 6.74231 67.834 8.06092C67.4065 8.4682 67.0073 9.14969 66.6081 10.1417C66.1605 11.295 65.9307 12.4281 65.9307 13.5088C65.9307 14.6863 66.1484 15.8758 66.5718 17.0452C66.9267 18.013 67.3017 18.7107 67.717 19.1744C68.8018 20.4043 70.0317 21.3398 71.3785 21.9608C72.7254 22.5778 74.1085 22.8923 75.4836 22.8923C76.9473 22.8923 78.3144 22.5657 79.5402 21.9205C80.2257 21.5616 80.8266 21.11 81.3468 20.5737V22.5294H84.6695V4.73414H81.3468V6.65359ZM81.3468 13.7225C81.3468 15.3153 80.7782 16.6581 79.6007 17.8316C78.4273 19.001 77.0804 19.5736 75.4836 19.5736C73.8867 19.5736 72.4068 19.0091 71.1688 17.8517C69.943 16.7025 69.3462 15.3435 69.3462 13.6983C69.3462 12.0531 69.9309 10.6377 71.1325 9.46019C72.3382 8.27464 73.7415 7.70203 75.4231 7.70203C77.1046 7.70203 78.4998 8.27464 79.641 9.45212C80.7903 10.6336 81.3468 12.0329 81.3468 13.7306V13.7225Z" fill="#121221"></path>
    <path d="M105.408 7.75042C104.291 6.55681 103.138 5.6858 101.981 5.16158C100.811 4.63333 99.5332 4.36719 98.1783 4.36719C96.8234 4.36719 95.4564 4.66962 94.1176 5.27046C93.3433 5.61725 92.674 6.04469 92.1175 6.55681V4.73414H88.8552V28.3684H92.2707V20.6583C92.7667 21.1584 93.3675 21.5939 94.0692 21.9568C95.283 22.5778 96.5976 22.8963 97.9847 22.8963C100.578 22.8963 102.844 22.0132 104.719 20.2672C106.606 18.509 107.566 16.2992 107.566 13.6943C107.566 12.4563 107.36 11.2829 106.949 10.2102C106.538 9.12549 106.017 8.29884 105.413 7.75445L105.408 7.75042ZM98.0412 19.5696C96.3274 19.5696 94.912 18.9647 93.7184 17.7187L93.7063 17.7066C93.1014 17.1057 92.682 16.4807 92.4602 15.8476C92.2304 15.1984 92.1134 14.4 92.1134 13.4805C92.1134 11.8151 92.6901 10.4643 93.8756 9.35534C95.0692 8.23432 96.4806 7.69397 98.1904 7.69397C99.9001 7.69397 101.247 8.26658 102.412 9.44809C103.578 10.6296 104.146 12.0087 104.146 13.666C104.146 15.3234 103.57 16.7549 102.38 17.884C101.186 19.0211 99.7671 19.5736 98.0412 19.5736V19.5696Z" fill="#121221"></path>
    <path d="M109.26 7.90389H113.881V22.5296H117.292V7.90389H121.853V4.73438H109.26V7.90389Z" fill="#121221"></path>
    <path d="M137.999 4.72607L132.785 16.9969L127.861 4.72607L124.192 4.73414L130.817 21.4568L127.966 28.3765L131.575 28.3644L141.68 4.73414L137.999 4.72607Z" fill="#121221"></path>
    <path d="M156.302 16.4967L156.129 16.7346C155.431 17.6822 154.649 18.4041 153.794 18.8718C152.955 19.3315 151.931 19.5694 150.762 19.5694C149.04 19.5694 147.641 19.0049 146.475 17.8435C145.31 16.6822 144.745 15.287 144.745 13.5691C144.745 11.8513 145.33 10.4883 146.536 9.37135C147.753 8.24226 149.193 7.69384 150.943 7.69384C151.988 7.69384 152.984 7.96402 153.903 8.4963C154.822 9.03262 155.56 9.75846 156.097 10.6617L156.266 10.948H159.972L159.665 10.1536C158.976 8.36323 157.814 6.93171 156.214 5.90746C154.625 4.88725 152.842 4.37109 150.915 4.37109C148.322 4.37109 146.052 5.2663 144.177 7.03252C142.289 8.8068 141.334 11.0166 141.334 13.6014C141.334 16.1862 142.289 18.5089 144.181 20.263C146.056 22.0091 148.354 22.8922 151.008 22.8922C152.919 22.8922 154.653 22.3922 156.161 21.4082C157.665 20.4243 158.831 19.0493 159.625 17.3234L160.004 16.4967H156.306H156.302Z" fill="#121221"></path>
    <path d="M0 0H3.45582V23.6343H0V0Z" fill="#7899A3"></path>
    <path d="M22.11 6.79066C21.3479 5.20994 20.2913 3.86713 18.9727 2.79046C17.6581 1.71783 16.2307 0.975856 14.7386 0.580674C13.4362 0.237915 11.9522 0.052422 10.3352 0.0161298V0H6.9197V16.8879H10.3352V3.23C11.4159 3.27033 12.3071 3.35904 12.9926 3.49614C14.3354 3.76229 15.5411 4.30667 16.5734 5.11316C18.7792 6.85922 19.8478 9.03675 19.8478 11.7708C19.8478 14.5048 18.7872 16.7831 16.5976 18.4929C15.5411 19.3397 14.3193 19.9042 12.9563 20.1704C12.0853 20.3438 10.7022 20.4325 8.84319 20.4325H7.28262L0 20.4284V23.6343H9.91179C11.9038 23.6343 13.5894 23.4447 14.9362 23.0657C16.5774 22.5979 18.0574 21.7713 19.3316 20.6099C20.6018 19.4566 21.5858 18.0937 22.2552 16.5654C22.9245 15.037 23.2633 13.4241 23.2633 11.7708C23.2633 10.1174 22.8762 8.37139 22.11 6.79066Z" fill="#121221"></path>
  </g>
  <defs>
    <clipPath id="clip0_1_4344">
      <rect width="160" height="28.3764" fill="white"></rect>
    </clipPath>
  </defs>
</svg>
