<?xml version="1.0" encoding="utf-8"?>
<!-- Generator: Adobe Illustrator 26.2.1, SVG Export Plug-In . SVG Version: 6.00 Build 0)  -->
<svg version="1.1" id="Слой_1" xmlns="http://www.w3.org/2000/svg" xmlns:xlink="http://www.w3.org/1999/xlink" x="0px" y="0px"
	 viewBox="0 0 456.1 240.3" style="enable-background:new 0 0 456.1 240.3;" xml:space="preserve">
<style type="text/css">
	.st0{fill:#A3A9B2;}
	.st1{fill-rule:evenodd;clip-rule:evenodd;fill:#00A5E3;}
</style>
<g>
	<g>
		<path class="st0" d="M24,162.6v-55.3h11.5v44.4h20.7v10.9H24z"/>
		<path class="st0" d="M79.8,162.6v-3.2l-0.3-0.1c-1,1.3-2.3,2.3-3.8,2.8c-1.5,0.6-2.9,0.8-4.1,0.8c-3.9,0-6.8-1-8.7-3.1
			c-1.9-2.1-2.9-5.1-2.9-9.1c0-1.6,0.3-3.2,0.8-4.6c0.6-1.5,1.4-2.7,2.5-3.9c1.1-1.1,2.5-2,4.2-2.6c1.7-0.6,3.6-1,5.9-1h6.4v-2.3
			c0-0.8-0.3-1.7-1-2.5c-0.6-0.8-1.9-1.3-3.7-1.3c-1.4,0-2.6,0.2-3.7,0.7c-1.1,0.5-2,1.3-2.7,2.6l-8-5.1c1.5-2.9,3.5-5,6-6.2
			c2.5-1.2,5.4-1.8,8.7-1.8c2.2,0,4.3,0.2,6.2,0.6c1.9,0.4,3.5,1.1,4.9,2.1c1.4,1,2.4,2.3,3.2,3.9c0.8,1.6,1.2,3.6,1.2,6.1v27H79.8z
			 M79.8,146.5h-4.8c-1.5,0-2.5,0.3-3.2,0.9c-0.6,0.6-1,1.5-1,2.5c0,0.7,0.3,1.5,0.9,2.2c0.6,0.7,1.7,1.1,3.3,1.1
			c1.3,0,2.4-0.4,3.3-1.1c1-0.7,1.4-1.8,1.4-3.2V146.5z"/>
		<path class="st0" d="M117.3,162.6v-24.9c0-1.5-0.4-2.7-1.2-3.4c-0.8-0.7-1.7-1.1-2.7-1.1c-1.2,0-2.1,0.4-2.9,1.2
			c-0.8,0.8-1.2,1.9-1.2,3.4v24.8H98.2v-39.3h11.1v3.2l0.3,0.1c0.9-1.1,2-1.9,3.4-2.6c1.4-0.7,2.7-1,4.1-1c4,0,6.9,1.1,8.7,3.3
			c1.8,2.2,2.7,5.1,2.7,8.8v27.6H117.3z"/>
		<path class="st0" d="M137,117.4v-10.1h11.1v10.1H137z M137,162.6v-39.3h11.1v39.3H137z"/>
		<path class="st0" d="M169.1,131.9v17c0,1.3,0.2,2.3,0.7,3c0.4,0.6,1.4,1,2.8,1h1.7v9.8h-5.2c-3.5,0-6.2-1-8-3s-2.7-4.4-2.7-7.3
			v-20.3h-3.9v-8.7h4v-10.6h10.6v10.6h5.2v8.7H169.1z"/>
		<path class="st0" d="M180.6,146.4v-9.9h25.5v9.9H180.6z"/>
		<path class="st0" d="M233.3,117.8v44.8h-11.4v-44.8H210v-10.5h35.1v10.5H233.3z"/>
		<path class="st0" d="M276.2,154.3c-1.4,3-3.4,5.2-6.1,6.6c-2.7,1.4-5.6,2.1-8.8,2.1c-2.9,0-5.4-0.4-7.3-1.4
			c-2-0.9-3.6-2.2-4.8-3.9c-1.2-1.7-2.1-3.8-2.7-6.3s-0.8-5.3-0.8-8.5c0-3.1,0.3-5.9,0.8-8.3c0.5-2.5,1.4-4.6,2.6-6.4
			c1.2-1.7,2.8-3.1,4.8-4.1c2-1,4.5-1.4,7.5-1.4c3.2,0,5.8,0.5,7.8,1.6c2,1.1,3.6,2.5,4.7,4.3c1.1,1.8,1.9,3.9,2.3,6.2
			c0.4,2.4,0.6,4.9,0.6,7.6v3.1h-20v0.6c0,0.9,0.1,1.7,0.2,2.5c0.1,0.8,0.3,1.5,0.6,2.1c0.3,0.6,0.8,1.1,1.3,1.4
			c0.6,0.3,1.3,0.5,2.2,0.5c1.1,0,2.1-0.3,3-0.8c0.9-0.5,1.8-1.4,2.7-2.7L276.2,154.3z M265.2,138.6c0-0.7-0.1-1.4-0.2-2.1
			c-0.1-0.7-0.3-1.3-0.6-1.8c-0.3-0.5-0.7-1-1.3-1.3c-0.6-0.3-1.3-0.5-2.2-0.5c-0.7,0-1.4,0.2-1.9,0.5c-0.5,0.3-1,0.8-1.3,1.3
			c-0.3,0.5-0.5,1.1-0.7,1.8c-0.1,0.7-0.2,1.4-0.3,2H265.2z"/>
		<path class="st0" d="M301.5,133.3c-2,0-3.5,0.5-4.7,1.5s-1.7,2.7-1.7,5.1v22.7h-11.1v-39.4h11v4.4l0.2,0.1c1-1.7,2.3-3,3.7-3.7
			c1.5-0.7,3.1-1.1,4.8-1.1c0.8,0,1.7,0.1,2.4,0.2c0.8,0.2,1.5,0.5,2.2,1l-2,10.3c-0.9-0.4-1.7-0.7-2.5-0.9
			C303,133.3,302.2,133.3,301.5,133.3z"/>
		<path class="st0" d="M326,122.8c3.3,0,6.2,0.8,8.7,2.3c2.5,1.5,4.3,3.8,5.3,6.8l-9.4,4.5c-0.6-1.3-1.2-2.2-1.8-2.7
			c-0.6-0.5-1.4-0.8-2.3-0.8c-2,0-3.3,0.9-3.9,2.8c-0.6,1.9-0.8,4.3-0.8,7.4c0,3.3,0.3,5.8,0.9,7.3c0.6,1.6,1.9,2.3,3.8,2.3
			c1,0,1.7-0.3,2.4-0.8s1.2-1.4,1.8-2.6l9.4,4.6c-1.1,2.9-2.8,5.1-5.3,6.7c-2.5,1.5-5.4,2.3-8.7,2.3c-3,0-5.4-0.5-7.4-1.5
			c-2-1-3.6-2.4-4.7-4.1c-1.2-1.8-2-3.9-2.5-6.3c-0.5-2.4-0.7-5.1-0.7-7.9c0-2.9,0.2-5.5,0.7-8c0.5-2.5,1.3-4.6,2.5-6.5
			c1.2-1.8,2.7-3.3,4.7-4.3C320.7,123.3,323.1,122.8,326,122.8z"/>
		<path class="st0" d="M360.6,122.7c3.7,0,6.6,0.7,8.7,2.1s3.7,3.2,4.6,5.4c0.7,1.7,1.2,3.6,1.4,5.8c0.2,2.1,0.3,4.5,0.3,7
			c0,2.8-0.1,5.2-0.4,7.3c-0.3,2.1-0.8,3.9-1.5,5.4c-1.4,2.8-3.3,4.7-5.7,5.8c-2.4,1.1-5.1,1.6-8.1,1.6c-2.7,0-5-0.4-6.9-1.3
			c-1.9-0.8-3.4-2-4.6-3.6c-1.3-1.7-2.2-3.8-2.7-6.3c-0.5-2.5-0.8-5.5-0.8-9c0.1-2.2,0.2-4.5,0.4-6.7c0.2-2.3,0.6-4.1,1.2-5.4
			c1.1-2.5,2.8-4.5,5.1-6C353.9,123.4,356.9,122.7,360.6,122.7z M360.5,132.9c-1.7,0-3,0.9-3.7,2.8c-0.3,0.9-0.5,1.9-0.6,3.1
			c-0.1,1.2-0.2,2.6-0.2,4.3c0,1.3,0,2.6,0.1,3.8c0.1,1.2,0.3,2.3,0.7,3.2c0.6,1.8,1.8,2.7,3.5,2.7c0.4,0,0.7,0,1.1-0.1
			s0.8-0.3,1.1-0.6c0.4-0.3,0.7-0.7,1-1.3s0.5-1.3,0.7-2.2c0.1-0.7,0.2-1.7,0.3-2.7c0.1-1.1,0.1-2.3,0.1-3.8c0-2.8-0.3-4.9-0.8-6.4
			C363.2,133.9,362.1,132.9,360.5,132.9z"/>
		<path class="st0" d="M420.8,122.9c2.2,0,4.1,0.4,5.6,1.2c1.5,0.8,2.7,1.8,3.5,3.1c0.9,1.3,1.5,2.8,1.8,4.5
			c0.3,1.7,0.5,3.5,0.5,5.3v25.6h-11.1v-24.9c0-1.5-0.4-2.7-1.2-3.4c-0.8-0.7-1.7-1.1-2.7-1.1c-1.2,0-2.1,0.4-2.9,1.1
			c-0.8,0.7-1.2,1.8-1.2,3.3v25h-11.1v-24.9c0-1.5-0.4-2.7-1.2-3.4c-0.8-0.7-1.7-1.1-2.7-1.1c-1.2,0-2.1,0.4-2.9,1.2
			c-0.8,0.8-1.2,1.9-1.2,3.4v24.9h-11.1v-39.3h11.1v3.5l0.4,0.1c0.9-1.1,2.1-2.1,3.5-2.8c1.5-0.8,2.8-1.2,4.2-1.2
			c2.3,0,4.2,0.4,5.7,1.3c1.5,0.9,2.7,2.1,3.7,3.8c1.2-1.5,2.6-2.7,4.2-3.7C417.2,123.3,419,122.9,420.8,122.9z"/>
	</g>
	<g>
		<path class="st0" d="M38.9,202.8c0,2.1-0.7,3.8-2.2,5c-1.5,1.3-3.5,1.9-6.1,1.9c-2,0-3.7-0.4-5-1.1c-1.4-0.7-2.5-1.8-3.3-3.4
			l3.7-2.7c1,1.8,2.6,2.7,4.6,2.7c1,0,1.8-0.2,2.4-0.7s0.9-1.1,0.9-1.8c0-0.8-0.3-1.4-0.8-1.7c-0.6-0.3-1.3-0.6-2.3-0.9
			c-1.1-0.2-2.1-0.5-3-0.8c-0.9-0.3-1.8-0.7-2.5-1.2c-0.7-0.5-1.3-1.1-1.7-1.9c-0.4-0.8-0.7-1.7-0.7-2.7c0-1,0.2-1.9,0.6-2.8
			c0.4-0.8,0.9-1.5,1.6-2.1c0.7-0.6,1.5-1,2.5-1.3s2-0.5,3.1-0.5c2,0,3.6,0.3,4.9,1s2.2,1.6,3,2.8l-3.3,2.9c-1-1.5-2.4-2.3-4.3-2.3
			c-1.1,0-1.9,0.2-2.3,0.7c-0.4,0.5-0.7,1-0.7,1.5c0,0.4,0.1,0.7,0.3,0.9c0.2,0.3,0.5,0.5,0.9,0.7s0.8,0.3,1.3,0.5
			c0.5,0.1,1,0.3,1.5,0.4c1,0.2,2,0.5,2.9,0.8c0.9,0.3,1.6,0.7,2.2,1.3c0.6,0.5,1.1,1.2,1.5,2C38.8,200.8,38.9,201.7,38.9,202.8z"/>
		<path class="st0" d="M69.8,209.5h-5v-12.6c0-1.6-0.2-2.9-0.6-3.8c-0.4-0.9-1.2-1.4-2.5-1.4c-0.7,0-1.2,0.1-1.6,0.4
			c-0.4,0.2-0.7,0.6-1,1c-0.2,0.5-0.4,1-0.5,1.6c-0.1,0.6-0.1,1.4-0.1,2.2v12.6h-5v-12.6c0-1.6-0.2-2.9-0.6-3.8
			c-0.4-0.9-1.2-1.4-2.5-1.4s-2.2,0.5-2.6,1.4s-0.6,2.3-0.6,3.9v12.5h-5v-22.3h5v2.2c0.1,0,0.1,0,0.1,0c0,0,0,0,0.1,0
			c0.6-0.8,1.3-1.4,2.1-1.8c0.8-0.4,1.7-0.7,2.7-0.7c1.3,0,2.3,0.3,3.2,0.8c0.9,0.5,1.6,1.2,2.1,2.1h0c0.8-0.9,1.6-1.6,2.6-2.1
			c0.9-0.5,2-0.7,3.1-0.7c1.1,0,2,0.2,2.8,0.6c0.8,0.4,1.5,0.9,2,1.6c0.5,0.7,0.9,1.4,1.2,2.3c0.3,0.9,0.4,1.9,0.4,2.9V209.5z"/>
		<path class="st0" d="M84.9,209.5v-1.7l-0.2-0.1c-0.5,0.7-1.3,1.2-2.2,1.6s-1.8,0.5-2.8,0.5c-2.2,0-3.8-0.6-4.9-1.9
			c-1.1-1.2-1.6-2.9-1.6-4.9c0-1,0.2-1.9,0.5-2.7c0.3-0.8,0.8-1.6,1.4-2.2c0.6-0.6,1.4-1.1,2.4-1.5c1-0.4,2.1-0.5,3.4-0.5h3.9v-2
			c0-0.8-0.3-1.4-0.8-1.9c-0.5-0.5-1.4-0.8-2.5-0.8c-0.8,0-1.6,0.1-2.3,0.4c-0.7,0.3-1.2,0.8-1.6,1.6c-0.1-0.1-0.4-0.2-0.7-0.4
			c-0.4-0.2-0.7-0.5-1.2-0.7c-0.4-0.2-0.8-0.5-1.1-0.7c-0.3-0.2-0.6-0.4-0.7-0.5c0.7-1.4,1.7-2.5,3.1-3.2c1.4-0.7,2.9-1,4.6-1
			c1.2,0,2.3,0.1,3.2,0.3c1,0.2,1.8,0.6,2.6,1.2c0.7,0.5,1.3,1.3,1.7,2.1c0.4,0.9,0.6,2,0.6,3.3v15.6H84.9z M84.9,199.9h-3.6
			c-1,0-1.8,0.2-2.3,0.7c-0.6,0.5-0.8,1.2-0.8,2.1c0,0.7,0.2,1.3,0.7,1.8c0.5,0.5,1.3,0.8,2.5,0.8c1,0,1.8-0.2,2.5-0.7
			c0.7-0.5,1-1.3,1-2.4V199.9z"/>
		<path class="st0" d="M103.2,191.8c-1.3,0-2.3,0.3-3,1c-0.7,0.7-1.1,1.8-1.1,3.3v13.5h-5v-22.4H99v2.5l0.1,0
			c0.6-1.1,1.3-1.8,2.2-2.2c0.9-0.4,1.9-0.6,2.9-0.6c0.5,0,0.9,0,1.3,0.1c0.4,0.1,0.8,0.2,1.1,0.5l-1,4.9c-0.4-0.2-0.8-0.4-1.2-0.5
			C104,191.8,103.6,191.8,103.2,191.8z"/>
		<path class="st0" d="M115.3,209.5c-1.9,0-3.3-0.5-4.2-1.6c-0.9-1.1-1.4-2.3-1.4-3.9v-12.9h-2.3v-4h2.3v-5.9h4.9v5.9h3.1v4h-3.1
			v11.4c0,0.8,0.2,1.4,0.5,1.8c0.3,0.4,0.9,0.7,1.7,0.7h1.1v4.5H115.3z"/>
		<path class="st0" d="M146.4,202.8c0,2.1-0.7,3.8-2.2,5c-1.5,1.3-3.5,1.9-6.1,1.9c-2,0-3.7-0.4-5-1.1c-1.4-0.7-2.5-1.8-3.3-3.4
			l3.7-2.7c1,1.8,2.6,2.7,4.6,2.7c1,0,1.8-0.2,2.4-0.7s0.9-1.1,0.9-1.8c0-0.8-0.3-1.4-0.8-1.7c-0.6-0.3-1.3-0.6-2.3-0.9
			c-1.1-0.2-2.1-0.5-3-0.8c-0.9-0.3-1.8-0.7-2.5-1.2c-0.7-0.5-1.3-1.1-1.7-1.9c-0.4-0.8-0.7-1.7-0.7-2.7c0-1,0.2-1.9,0.6-2.8
			c0.4-0.8,0.9-1.5,1.6-2.1c0.7-0.6,1.5-1,2.5-1.3s2-0.5,3.1-0.5c2,0,3.6,0.3,4.9,1s2.2,1.6,3,2.8l-3.3,2.9c-1-1.5-2.4-2.3-4.3-2.3
			c-1.1,0-1.9,0.2-2.3,0.7c-0.4,0.5-0.7,1-0.7,1.5c0,0.4,0.1,0.7,0.3,0.9c0.2,0.3,0.5,0.5,0.9,0.7s0.8,0.3,1.3,0.5
			c0.5,0.1,1,0.3,1.5,0.4c1,0.2,2,0.5,2.9,0.8c0.9,0.3,1.6,0.7,2.2,1.3c0.6,0.5,1.1,1.2,1.5,2C146.2,200.8,146.4,201.7,146.4,202.8z
			"/>
		<path class="st0" d="M157.7,186.8c1.9,0,3.4,0.4,4.6,1.2s2,1.7,2.5,2.9c0.4,0.8,0.7,2,0.9,3.3c0.2,1.4,0.2,2.8,0.2,4.2
			c0,1.2-0.1,2.5-0.2,3.8c-0.2,1.3-0.4,2.4-0.7,3.2c-0.3,0.8-0.8,1.5-1.3,2.1c-0.5,0.6-1.1,1-1.8,1.4c-0.7,0.3-1.4,0.6-2.2,0.7
			s-1.6,0.2-2.4,0.2c-1.6,0-3-0.3-4.1-0.9s-2-1.4-2.6-2.4c-0.5-0.9-0.9-2-1.2-3.4c-0.2-1.4-0.3-3-0.3-4.7c0-1.4,0.1-2.7,0.2-4
			c0.1-1.3,0.4-2.3,0.7-3.1c0.6-1.4,1.5-2.5,2.8-3.3C154.1,187.2,155.7,186.8,157.7,186.8z M157.6,191.4c-0.7,0-1.3,0.2-1.8,0.5
			s-0.9,0.8-1.2,1.5c-0.2,0.5-0.4,1.3-0.4,2.1c-0.1,0.9-0.1,1.9-0.1,3c0,0.9,0,1.7,0.1,2.5c0,0.8,0.2,1.5,0.4,2c0.5,1.4,1.5,2,2.9,2
			c0.7,0,1.3-0.2,1.9-0.5c0.6-0.3,1-1,1.2-2.1c0.1-0.4,0.2-1,0.2-1.9s0.1-1.7,0.1-2.8c0-0.9,0-1.7-0.1-2.5c-0.1-0.8-0.2-1.4-0.4-1.9
			C159.9,192.1,159,191.4,157.6,191.4z"/>
		<path class="st0" d="M186.5,191.1v11.4c0,0.8,0.1,1.4,0.4,1.9c0.3,0.4,0.8,0.6,1.6,0.6h1.1v4.5h-2.5c-1.9,0-3.3-0.5-4.2-1.6
			c-0.9-1.1-1.4-2.4-1.4-3.9v-12.9h-6.1v18.4h-5v-18.4h-2.4v-4h2.4v-4.5c0-1,0.2-1.9,0.5-2.7c0.3-0.7,0.7-1.4,1.3-1.9
			c0.5-0.5,1.2-0.9,1.9-1.1c0.7-0.2,1.5-0.4,2.3-0.4h2.9v4.5h-2c-0.7,0-1.2,0.2-1.5,0.6c-0.3,0.4-0.5,0.9-0.5,1.5v3.9h6.1v-5.9h4.9
			v5.9h3v4H186.5z"/>
		<path class="st0" d="M216.5,198.3c-1,3.7-2,7.4-3,11.2h-4.8l-1.4-5.2l-2.1-8.4h-0.1c-0.3,1.3-0.6,2.6-0.9,3.9
			c-0.3,1.4-0.6,2.6-0.9,3.8c-0.3,1.2-0.6,2.3-0.8,3.2c-0.2,0.9-0.4,1.8-0.7,2.6h-4.9c-1-3.8-2-7.5-3-11.2c-1-3.7-2-7.4-3-11.2h5.3
			l1.4,6.9c0.3,1.3,0.5,2.6,0.8,3.9c0.3,1.3,0.6,2.6,0.9,3.9h0.2c0.3-1.3,0.6-2.6,0.9-3.9c0.3-1.3,0.6-2.6,0.9-3.9
			c0.3-1.1,0.5-2.3,0.8-3.5c0.3-1.2,0.5-2.3,0.8-3.5h4.6l1.4,6.2l2.1,8.6h0.2c0.1-0.3,0.2-0.6,0.2-0.9c0.1-0.3,0.2-0.8,0.3-1.4
			c0.1-0.6,0.3-1.3,0.5-2.2c0.2-0.9,0.4-2.1,0.7-3.5c0.2-1.1,0.5-2.3,0.7-3.4c0.2-1.1,0.5-2.3,0.7-3.4h5.2
			C218.5,190.9,217.5,194.6,216.5,198.3z"/>
		<path class="st0" d="M232.7,209.5v-1.7l-0.2-0.1c-0.5,0.7-1.3,1.2-2.2,1.6s-1.8,0.5-2.8,0.5c-2.2,0-3.8-0.6-4.9-1.9
			c-1.1-1.2-1.6-2.9-1.6-4.9c0-1,0.2-1.9,0.5-2.7c0.3-0.8,0.8-1.6,1.4-2.2c0.6-0.6,1.4-1.1,2.4-1.5c1-0.4,2.1-0.5,3.4-0.5h3.9v-2
			c0-0.8-0.3-1.4-0.8-1.9c-0.5-0.5-1.4-0.8-2.5-0.8c-0.8,0-1.6,0.1-2.3,0.4c-0.7,0.3-1.2,0.8-1.6,1.6c-0.1-0.1-0.4-0.2-0.7-0.4
			c-0.4-0.2-0.7-0.5-1.2-0.7c-0.4-0.2-0.8-0.5-1.1-0.7c-0.3-0.2-0.6-0.4-0.7-0.5c0.7-1.4,1.7-2.5,3.1-3.2c1.4-0.7,2.9-1,4.6-1
			c1.2,0,2.3,0.1,3.2,0.3c1,0.2,1.8,0.6,2.6,1.2c0.7,0.5,1.3,1.3,1.7,2.1c0.4,0.9,0.6,2,0.6,3.3v15.6H232.7z M232.7,199.9h-3.6
			c-1,0-1.8,0.2-2.3,0.7c-0.6,0.5-0.8,1.2-0.8,2.1c0,0.7,0.2,1.3,0.7,1.8c0.5,0.5,1.3,0.8,2.5,0.8c1,0,1.8-0.2,2.5-0.7
			c0.7-0.5,1-1.3,1-2.4V199.9z"/>
		<path class="st0" d="M250.9,191.8c-1.3,0-2.3,0.3-3,1c-0.7,0.7-1.1,1.8-1.1,3.3v13.5h-5v-22.4h4.9v2.5l0.1,0
			c0.6-1.1,1.3-1.8,2.2-2.2c0.9-0.4,1.9-0.6,2.9-0.6c0.5,0,0.9,0,1.3,0.1c0.4,0.1,0.8,0.2,1.1,0.5l-1,4.9c-0.4-0.2-0.8-0.4-1.2-0.5
			C251.7,191.8,251.3,191.8,250.9,191.8z"/>
		<path class="st0" d="M267.9,203c0.7,0.4,1.4,0.7,2.1,1.1s1.4,0.7,2.1,1.1c-0.7,1.5-1.7,2.6-3.1,3.4s-2.9,1.1-4.5,1.1
			c-3.2,0-5.4-0.9-6.7-2.8c-1.3-1.9-2-4.7-2-8.6c0-1.6,0.1-3.1,0.4-4.5c0.3-1.4,0.7-2.6,1.4-3.6s1.5-1.9,2.6-2.5
			c1.1-0.6,2.5-0.9,4.1-0.9c1.5,0,2.8,0.3,3.9,0.8c1.1,0.5,1.9,1.2,2.6,2.1c0.7,0.9,1.1,2,1.4,3.2c0.3,1.2,0.4,2.6,0.4,4.1v2.6
			h-11.7c0,0.7,0,1.4,0.1,2.1c0.1,0.7,0.3,1.3,0.5,1.8c0.3,0.5,0.6,0.9,1.1,1.2c0.5,0.3,1,0.5,1.8,0.5s1.4-0.2,2-0.6
			C267,204.2,267.5,203.6,267.9,203z M267.4,196.1c0-1.4-0.2-2.6-0.7-3.4c-0.5-0.9-1.3-1.3-2.6-1.3c-1.2,0-2,0.5-2.5,1.4
			c-0.5,0.9-0.7,2-0.8,3.3H267.4z"/>
		<path class="st0" d="M301.7,202.8c0,2.1-0.7,3.8-2.2,5c-1.5,1.3-3.5,1.9-6.1,1.9c-2,0-3.7-0.4-5-1.1c-1.4-0.7-2.5-1.8-3.3-3.4
			l3.7-2.7c1,1.8,2.6,2.7,4.6,2.7c1,0,1.8-0.2,2.4-0.7s0.9-1.1,0.9-1.8c0-0.8-0.3-1.4-0.8-1.7c-0.6-0.3-1.3-0.6-2.3-0.9
			c-1.1-0.2-2.1-0.5-3-0.8c-0.9-0.3-1.8-0.7-2.5-1.2c-0.7-0.5-1.3-1.1-1.7-1.9c-0.4-0.8-0.7-1.7-0.7-2.7c0-1,0.2-1.9,0.6-2.8
			c0.4-0.8,0.9-1.5,1.6-2.1c0.7-0.6,1.5-1,2.5-1.3s2-0.5,3.1-0.5c2,0,3.6,0.3,4.9,1s2.2,1.6,3,2.8l-3.3,2.9c-1-1.5-2.4-2.3-4.3-2.3
			c-1.1,0-1.9,0.2-2.3,0.7c-0.4,0.5-0.7,1-0.7,1.5c0,0.4,0.1,0.7,0.3,0.9c0.2,0.3,0.5,0.5,0.9,0.7s0.8,0.3,1.3,0.5
			c0.5,0.1,1,0.3,1.5,0.4c1,0.2,2,0.5,2.9,0.8c0.9,0.3,1.6,0.7,2.2,1.3c0.6,0.5,1.1,1.2,1.5,2C301.5,200.8,301.7,201.7,301.7,202.8z
			"/>
		<path class="st0" d="M312.9,186.8c1.9,0,3.4,0.4,4.6,1.2s2,1.7,2.5,2.9c0.4,0.8,0.7,2,0.9,3.3c0.2,1.4,0.2,2.8,0.2,4.2
			c0,1.2-0.1,2.5-0.2,3.8c-0.2,1.3-0.4,2.4-0.7,3.2c-0.3,0.8-0.8,1.5-1.3,2.1c-0.5,0.6-1.1,1-1.8,1.4c-0.7,0.3-1.4,0.6-2.2,0.7
			s-1.6,0.2-2.4,0.2c-1.6,0-3-0.3-4.1-0.9s-2-1.4-2.6-2.4c-0.5-0.9-0.9-2-1.2-3.4c-0.2-1.4-0.3-3-0.3-4.7c0-1.4,0.1-2.7,0.2-4
			c0.1-1.3,0.4-2.3,0.7-3.1c0.6-1.4,1.5-2.5,2.8-3.3C309.3,187.2,311,186.8,312.9,186.8z M312.8,191.4c-0.7,0-1.3,0.2-1.8,0.5
			s-0.9,0.8-1.2,1.5c-0.2,0.5-0.4,1.3-0.4,2.1c-0.1,0.9-0.1,1.9-0.1,3c0,0.9,0,1.7,0.1,2.5c0,0.8,0.2,1.5,0.4,2c0.5,1.4,1.5,2,2.9,2
			c0.7,0,1.3-0.2,1.9-0.5c0.6-0.3,1-1,1.2-2.1c0.1-0.4,0.2-1,0.2-1.9s0.1-1.7,0.1-2.8c0-0.9,0-1.7-0.1-2.5c-0.1-0.8-0.2-1.4-0.4-1.9
			C315.2,192.1,314.2,191.4,312.8,191.4z"/>
		<path class="st0" d="M331.1,209.6c-2,0-3.5-0.4-4.6-1.3c-1.1-0.8-1.6-2.4-1.6-4.6v-27.1h5v26.1c0,0.9,0.2,1.5,0.5,1.8
			c0.3,0.3,0.9,0.5,1.6,0.5h0.7v4.5H331.1z"/>
		<path class="st0" d="M346.8,209.5v-2.1c0,0-0.1,0-0.1,0s-0.1,0-0.1,0c-0.6,0.8-1.3,1.3-2.1,1.7c-0.9,0.4-1.7,0.6-2.6,0.6
			c-2,0-3.6-0.6-4.7-1.8s-1.7-2.9-1.7-5v-15.8h5v14.4c0,1.1,0.3,2,0.9,2.6c0.6,0.6,1.4,0.9,2.2,0.9c1.2,0,2-0.4,2.5-1.3
			c0.5-0.9,0.7-2,0.7-3.5v-13.1h5v22.3H346.8z"/>
		<path class="st0" d="M362.6,209.5c-1.9,0-3.3-0.5-4.2-1.6c-0.9-1.1-1.4-2.3-1.4-3.9v-12.9h-2.3v-4h2.3v-5.9h4.9v5.9h3.1v4h-3.1
			v11.4c0,0.8,0.2,1.4,0.5,1.8c0.3,0.4,0.9,0.7,1.7,0.7h1.1v4.5H362.6z"/>
		<path class="st0" d="M368.5,182.7V178h5v4.7H368.5z M368.5,209.5v-22.4h5v22.4H368.5z"/>
		<path class="st0" d="M386,186.8c1.9,0,3.4,0.4,4.6,1.2s2,1.7,2.5,2.9c0.4,0.8,0.7,2,0.9,3.3c0.2,1.4,0.2,2.8,0.2,4.2
			c0,1.2-0.1,2.5-0.2,3.8c-0.2,1.3-0.4,2.4-0.7,3.2c-0.3,0.8-0.8,1.5-1.3,2.1c-0.5,0.6-1.1,1-1.8,1.4c-0.7,0.3-1.4,0.6-2.2,0.7
			s-1.6,0.2-2.4,0.2c-1.6,0-3-0.3-4.1-0.9s-2-1.4-2.6-2.4c-0.5-0.9-0.9-2-1.2-3.4c-0.2-1.4-0.3-3-0.3-4.7c0-1.4,0.1-2.7,0.2-4
			c0.1-1.3,0.4-2.3,0.7-3.1c0.6-1.4,1.5-2.5,2.8-3.3C382.4,187.2,384,186.8,386,186.8z M385.9,191.4c-0.7,0-1.3,0.2-1.8,0.5
			s-0.9,0.8-1.2,1.5c-0.2,0.5-0.4,1.3-0.4,2.1c-0.1,0.9-0.1,1.9-0.1,3c0,0.9,0,1.7,0.1,2.5c0,0.8,0.2,1.5,0.4,2c0.5,1.4,1.5,2,2.9,2
			c0.7,0,1.3-0.2,1.9-0.5c0.6-0.3,1-1,1.2-2.1c0.1-0.4,0.2-1,0.2-1.9s0.1-1.7,0.1-2.8c0-0.9,0-1.7-0.1-2.5c-0.1-0.8-0.2-1.4-0.4-1.9
			C388.2,192.1,387.3,191.4,385.9,191.4z"/>
		<path class="st0" d="M409.2,209.5v-14.4c0-1.1-0.3-2-0.9-2.6s-1.4-0.9-2.3-0.9c-1,0-1.7,0.3-2.3,0.9c-0.6,0.6-0.9,1.5-0.9,2.6
			v14.3h-5v-22.4h5v2.2h0.1c0.6-0.7,1.3-1.3,2.2-1.7c0.8-0.4,1.7-0.7,2.7-0.7c2,0,3.6,0.6,4.7,1.8c1.1,1.2,1.7,2.9,1.7,5v15.8H409.2
			z"/>
		<path class="st0" d="M433.8,202.8c0,2.1-0.7,3.8-2.2,5c-1.5,1.3-3.5,1.9-6.1,1.9c-2,0-3.7-0.4-5-1.1c-1.4-0.7-2.5-1.8-3.3-3.4
			l3.7-2.7c1,1.8,2.6,2.7,4.6,2.7c1,0,1.8-0.2,2.4-0.7s0.9-1.1,0.9-1.8c0-0.8-0.3-1.4-0.8-1.7c-0.6-0.3-1.3-0.6-2.3-0.9
			c-1.1-0.2-2.1-0.5-3-0.8c-0.9-0.3-1.8-0.7-2.5-1.2c-0.7-0.5-1.3-1.1-1.7-1.9c-0.4-0.8-0.7-1.7-0.7-2.7c0-1,0.2-1.9,0.6-2.8
			c0.4-0.8,0.9-1.5,1.6-2.1c0.7-0.6,1.5-1,2.5-1.3s2-0.5,3.1-0.5c2,0,3.6,0.3,4.9,1s2.2,1.6,3,2.8l-3.3,2.9c-1-1.5-2.4-2.3-4.3-2.3
			c-1.1,0-1.9,0.2-2.3,0.7c-0.4,0.5-0.7,1-0.7,1.5c0,0.4,0.1,0.7,0.3,0.9c0.2,0.3,0.5,0.5,0.9,0.7s0.8,0.3,1.3,0.5
			c0.5,0.1,1,0.3,1.5,0.4c1,0.2,2,0.5,2.9,0.8c0.9,0.3,1.6,0.7,2.2,1.3c0.6,0.5,1.1,1.2,1.5,2C433.7,200.8,433.8,201.7,433.8,202.8z
			"/>
	</g>
	<g>
		<g>
			<path class="st1" d="M392.3,94.4c-9-5.8-18.5-10.8-27.8-16.1c-4.1-2.4-8.4-3.3-13-3c-3.1,0.2-6.2,0.1-9.3,0.5
				c-7.1,0.8-14.3,1.1-21.3,2.2c-1.6,0.2-2.5-0.4-2.8-1.9c-0.4-2-0.8-4-1.3-6c-0.5-1.8,0.1-2.6,1.7-3.3c7.7-3.3,15.5-6.4,23-10.4
				c1.4-0.8,2.9-1,4.4-1.2c5.5-0.5,10.6,1.2,15.8,2.3c1.3,0.3,2.6,0.5,3.9-0.1c4.7-2,9.6-3.7,12.9-8.1c1.1-1.4,0.9-1.8-0.5-2.7
				c-4.5-3.1-7-4.1-11.1-8c-0.9-0.8-3.1-3.9-4.4-4c-4.8-0.4-9.7-0.8-14.5-1.4c-2.4-0.3-2.8-1.6-4.2-2.3c-0.6-0.3-1.8-0.3-2.9-0.3
				c-0.7,0-2.7,0.5-3,0.8c-2,1.1-3.5,3.1-6,3.2c-9.5,0.4-19,1.4-28.5,1.9c-8.1,0.5-16,2.1-24,3.1c-5.5,0.7-11,1.8-16.5,2.8
				c-7.6,1.4-15.1,2.8-22.7,4.4c-11.2,2.4-22.2,5.3-33.3,8.3c-13.5,3.7-42.4,12.2-43.5,13.2c0.8,0,10.8-1.1,15.4-0.8
				c4.9,0.4,9.8,0.2,14.7,0.6c7.9,0.7,15.7,1.9,23.4,3.4c15,2.9,28.7,8.9,41.4,17.3c6.5,4.3,13.3,7.8,20.8,9.8
				c6,1.6,12,2.2,18.1,1.2c5.6-0.9,11.1-2,16.6-3.2c13-2.7,26-5.5,38.9-8.6c2-0.5,3.6-0.4,5.4,0.5c6.5,3.2,13.1,6.1,19.8,8.7
				c4.3,1.7,8.8,2.7,13.5,1.4c1.3-0.4,3.4-0.1,3.7-1.7C395.3,95.8,393.5,95.1,392.3,94.4z"/>
		</g>
		<g>
			<path class="st1" d="M199.7,75.1c-8.4-1.3-16.9-1.8-25.4-2.1c-8-0.3-15.9,0-23.8,1.1c-8.1,1-16.1,2.7-24,5.1
				c-4.7,1.4-23.1,8.4-23.4,9.7c19.9-5.5,39.8-7.5,53.4-8.1c11.5-0.5,23-0.4,34.5,0.6c7.9,0.7,15.8,1.7,23.7,2.5
				c7.4,0.8,25.8,3,27.7,3.1c-6.4-2.3-12.7-4.9-19.2-6.7C215.5,78,207.7,76.3,199.7,75.1z"/>
		</g>
		<g>
			<path class="st1" d="M136.1,87.6c-9,0.5-17.9,2.1-26.8,3.6c-11.4,2-22.4,5.5-33.2,9.7c-5.1,2-17.3,7.9-17,8.2
				c10.8-2.9,15.1-4.1,21.1-5.7c7-1.8,18.4-4.7,30.1-6.9c12.6-2.4,25.6-4.1,34.3-5.1c6.3-0.8,36-3.7,37-3.8
				c-4.2-0.9-15.6-0.9-16.4-0.9C155.5,86.6,145.8,87,136.1,87.6z"/>
		</g>
	</g>
</g>
</svg>
